<svg fill="currentColor" viewBox="0 0 1.08 1.08" version="1.1" preserveAspectRatio="xMidYMid meet" xmlns="http://www.w3.org/2000/svg" xmlns:xlink="http://www.w3.org/1999/xlink">
<title>email-line</title>
<path class="clr-i-outline clr-i-outline-path-1" d="M0.96 0.18H0.12a0.06 0.06 0 0 0 -0.06 0.06v0.6a0.06 0.06 0 0 0 0.06 0.06h0.84a0.06 0.06 0 0 0 0.06 -0.06V0.24a0.06 0.06 0 0 0 -0.06 -0.06m-0.046 0.66H0.17l0.21 -0.217 -0.043 -0.042L0.12 0.805V0.286l0.373 0.371a0.06 0.06 0 0 0 0.085 0L0.96 0.276v0.525l-0.221 -0.221 -0.042 0.042ZM0.159 0.24h0.752L0.535 0.614Z"/>
<path x="0" y="0" width="36" height="36" fill-opacity="0" d="M0 0H1.08V1.08H0V0z"/></svg>