<svg fill="#000000" viewBox="0 0 0.72 0.72" id="facebook" data-name="Flat Color" xmlns="http://www.w3.org/2000/svg" class="icon flat-color">
<path id="primary" d="M0.42 0.18h0.09a0.03 0.03 0 0 0 0.03 -0.03V0.09a0.03 0.03 0 0 0 -0.03 -0.03h-0.09a0.15 0.15 0 0 0 -0.15 0.15v0.09H0.21a0.03 0.03 0 0 0 -0.03 0.03v0.06a0.03 0.03 0 0 0 0.03 0.03h0.06v0.21a0.03 0.03 0 0 0 0.03 0.03h0.06a0.03 0.03 0 0 0 0.03 -0.03v-0.21h0.067a0.03 0.03 0 0 0 0.03 -0.023l0.015 -0.06a0.03 0.03 0 0 0 -0.03 -0.037H0.39V0.21a0.03 0.03 0 0 1 0.03 -0.03" fill="currentColor"/></svg>